<?xml version="1.0" standalone="no"?>
<!DOCTYPE svg PUBLIC "-//W3C//DTD SVG 20010904//EN"
 "http://www.w3.org/TR/2001/REC-SVG-20010904/DTD/svg10.dtd">
<svg version="1.0" xmlns="http://www.w3.org/2000/svg"
 width="64.000000pt" height="64.000000pt" viewBox="0 0 64.000000 64.000000"
 preserveAspectRatio="xMidYMid meet">
<metadata>
Created by potrace 1.16, written by Peter Selinger 2001-2019
</metadata>
<g transform="translate(0.000000,64.000000) scale(0.100000,-0.100000)"
fill="#000000" stroke="none">
<path d="M170 291 c0 -123 4 -202 10 -206 6 -4 10 32 10 99 l0 106 95 0 c78 0
95 3 95 15 0 12 -17 15 -95 15 l-95 0 0 70 0 70 115 0 c96 0 115 3 115 15 0
13 -21 15 -125 15 l-125 0 0 -199z"/>
</g>
</svg>
