<?xml version="1.0" encoding="UTF-8"?>
<!DOCTYPE svg PUBLIC "-//W3C//DTD SVG 1.1//EN" "http://www.w3.org/Graphics/SVG/1.1/DTD/svg11.dtd">
<!-- Creator: CorelDRAW Standard 2020 (Оценочная версия) -->
<svg xmlns="http://www.w3.org/2000/svg" xml:space="preserve" width="200mm" height="200mm" version="1.1" style="shape-rendering:geometricPrecision; text-rendering:geometricPrecision; image-rendering:optimizeQuality; fill-rule:evenodd; clip-rule:evenodd"
viewBox="0 0 20000 20000"
 xmlns:xlink="http://www.w3.org/1999/xlink"
 xmlns:xodm="http://www.corel.com/coreldraw/odm/2003">
 <defs>
  <style type="text/css">
   <![CDATA[
    .str0 {stroke:#5D7FF8;stroke-width:20;stroke-miterlimit:22.9256}
    .str1 {stroke:#5F81F8;stroke-width:20;stroke-miterlimit:22.9256}
    .str2 {stroke:#6283F9;stroke-width:20;stroke-miterlimit:22.9256}
    .str3 {stroke:#6485F9;stroke-width:20;stroke-miterlimit:22.9256}
    .str4 {stroke:#6786F9;stroke-width:20;stroke-miterlimit:22.9256}
    .str5 {stroke:#6988FA;stroke-width:20;stroke-miterlimit:22.9256}
    .str6 {stroke:#6C8AFA;stroke-width:20;stroke-miterlimit:22.9256}
    .str7 {stroke:#6E8CFA;stroke-width:20;stroke-miterlimit:22.9256}
    .str8 {stroke:#718EFB;stroke-width:20;stroke-miterlimit:22.9256}
    .str9 {stroke:#7390FB;stroke-width:20;stroke-miterlimit:22.9256}
    .str10 {stroke:#7692FB;stroke-width:20;stroke-miterlimit:22.9256}
    .str11 {stroke:#7893FC;stroke-width:20;stroke-miterlimit:22.9256}
    .str12 {stroke:#7B95FC;stroke-width:20;stroke-miterlimit:22.9256}
    .str13 {stroke:#7D97FC;stroke-width:20;stroke-miterlimit:22.9256}
    .str14 {stroke:#8099FD;stroke-width:20;stroke-miterlimit:22.9256}
    .str15 {stroke:#829BFD;stroke-width:20;stroke-miterlimit:22.9256}
    .str16 {stroke:#859DFD;stroke-width:20;stroke-miterlimit:22.9256}
    .str17 {stroke:#879FFE;stroke-width:20;stroke-miterlimit:22.9256}
    .str18 {stroke:#8AA0FE;stroke-width:20;stroke-miterlimit:22.9256}
    .str19 {stroke:#8CA2FE;stroke-width:20;stroke-miterlimit:22.9256}
    .str20 {stroke:#8FA4FF;stroke-width:20;stroke-miterlimit:22.9256}
    .str21 {stroke:#91A6FF;stroke-width:20;stroke-miterlimit:22.9256}
    .str22 {stroke:white;stroke-width:20;stroke-miterlimit:22.9256}
    .fil13 {fill:none}
    .fil24 {fill:none;fill-rule:nonzero}
    .fil0 {fill:#5D7FF8}
    .fil1 {fill:#5F81F8}
    .fil2 {fill:#6283F9}
    .fil3 {fill:#6485F9}
    .fil4 {fill:#6786F9}
    .fil5 {fill:#6988FA}
    .fil6 {fill:#6C8AFA}
    .fil7 {fill:#6E8CFA}
    .fil8 {fill:#718EFB}
    .fil9 {fill:#7390FB}
    .fil10 {fill:#7692FB}
    .fil11 {fill:#7893FC}
    .fil12 {fill:#7B95FC}
    .fil14 {fill:#7D97FC}
    .fil15 {fill:#8099FD}
    .fil16 {fill:#829BFD}
    .fil17 {fill:#859DFD}
    .fil18 {fill:#879FFE}
    .fil19 {fill:#8AA0FE}
    .fil20 {fill:#8CA2FE}
    .fil21 {fill:#8FA4FF}
    .fil22 {fill:#91A6FF}
    .fil23 {fill:white}
   ]]>
  </style>
 </defs>
 <g id="Слой_x0020_1">
  <metadata id="CorelCorpID_0Corel-Layer"/>
  <g id="_925024616">
   <circle class="fil0 str0" cx="8515.05" cy="7876.1" r="7001.24"/>
   <g>
    <path class="fil1 str1" d="M8631.59 932.39c3691.51,0 6684.07,2992.56 6684.07,6684.08 0,3691.51 -2992.56,6684.07 -6684.07,6684.07 -3691.51,0 -6684.07,-2992.56 -6684.07,-6684.07 0,-3691.52 2992.56,-6684.08 6684.07,-6684.08z"/>
    <path class="fil2 str2" d="M8748.13 989.92c3516.35,0 6366.91,2850.56 6366.91,6366.91 0,3516.35 -2850.56,6366.91 -6366.91,6366.91 -3516.35,0 -6366.91,-2850.56 -6366.91,-6366.91 0,-3516.35 2850.56,-6366.91 6366.91,-6366.91z"/>
    <path class="fil3 str3" d="M8864.67 1047.46c3341.18,0 6049.74,2708.56 6049.74,6049.74 0,3341.18 -2708.56,6049.74 -6049.74,6049.74 -3341.18,0 -6049.74,-2708.56 -6049.74,-6049.74 0,-3341.18 2708.56,-6049.74 6049.74,-6049.74z"/>
    <path class="fil4 str4" d="M8981.21 1104.99c3166.02,0 5732.58,2566.56 5732.58,5732.58 0,3166.01 -2566.56,5732.58 -5732.58,5732.58 -3166.02,0 -5732.58,-2566.57 -5732.58,-5732.58 0,-3166.02 2566.56,-5732.58 5732.58,-5732.58z"/>
    <path class="fil5 str5" d="M9097.75 1162.52c2990.85,0 5415.41,2424.56 5415.41,5415.41 0,2990.85 -2424.56,5415.42 -5415.41,5415.42 -2990.85,0 -5415.41,-2424.57 -5415.41,-5415.42 0,-2990.85 2424.56,-5415.41 5415.41,-5415.41z"/>
    <path class="fil6 str6" d="M9214.29 1220.05c2815.69,0 5098.25,2282.56 5098.25,5098.25 0,2815.69 -2282.56,5098.25 -5098.25,5098.25 -2815.69,0 -5098.25,-2282.56 -5098.25,-5098.25 0,-2815.69 2282.56,-5098.25 5098.25,-5098.25z"/>
    <path class="fil7 str7" d="M9330.83 1277.58c2640.52,0 4781.08,2140.57 4781.08,4781.09 0,2640.52 -2140.56,4781.08 -4781.08,4781.08 -2640.52,0 -4781.08,-2140.56 -4781.08,-4781.08 0,-2640.52 2140.56,-4781.09 4781.08,-4781.09z"/>
    <path class="fil8 str8" d="M9447.37 1335.12c2465.35,0 4463.92,1998.56 4463.92,4463.91 0,2465.36 -1998.57,4463.92 -4463.92,4463.92 -2465.35,0 -4463.92,-1998.56 -4463.92,-4463.92 0,-2465.35 1998.57,-4463.91 4463.92,-4463.91z"/>
    <path class="fil9 str9" d="M9563.91 1392.65c2290.19,0 4146.75,1856.56 4146.75,4146.75 0,2290.19 -1856.56,4146.75 -4146.75,4146.75 -2290.19,0 -4146.75,-1856.56 -4146.75,-4146.75 0,-2290.19 1856.56,-4146.75 4146.75,-4146.75z"/>
    <path class="fil10 str10" d="M9680.45 1450.18c2115.02,0 3829.59,1714.56 3829.59,3829.59 0,2115.02 -1714.57,3829.58 -3829.59,3829.58 -2115.02,0 -3829.59,-1714.56 -3829.59,-3829.58 0,-2115.03 1714.57,-3829.59 3829.59,-3829.59z"/>
    <path class="fil11 str11" d="M9796.99 1507.71c1939.86,0 3512.42,1572.57 3512.42,3512.42 0,1939.86 -1572.56,3512.43 -3512.42,3512.43 -1939.86,0 -3512.42,-1572.57 -3512.42,-3512.43 0,-1939.85 1572.56,-3512.42 3512.42,-3512.42z"/>
    <g>
     <path class="fil12" d="M9913.53 1565.24c1764.69,0 3195.26,1430.57 3195.26,3195.26 0,1764.69 -1430.57,3195.26 -3195.26,3195.26 -621.16,0 -1200.92,-177.25 -1691.47,-483.92 -903.07,-564.58 -1503.79,-1567.81 -1503.79,-2711.34 0,-1764.69 1430.57,-3195.26 3195.26,-3195.26z"/>
     <path class="fil13 str12" d="M8222.06 7471.84c-903.07,-564.58 -1503.79,-1567.81 -1503.79,-2711.34 0,-1764.69 1430.57,-3195.26 3195.26,-3195.26 1764.69,0 3195.26,1430.57 3195.26,3195.26 0,1764.69 -1430.57,3195.26 -3195.26,3195.26 -621.16,0 -1200.92,-177.25 -1691.47,-483.92"/>
    </g>
    <path class="fil14 str13" d="M10030.07 1622.77c1589.53,0 2878.09,1288.57 2878.09,2878.1 0,1589.52 -1288.56,2878.09 -2878.09,2878.09 -1589.53,0 -2878.09,-1288.57 -2878.09,-2878.09 0,-1589.53 1288.56,-2878.1 2878.09,-2878.1z"/>
    <path class="fil15 str14" d="M10146.61 1680.31c1414.36,0 2560.93,1146.56 2560.93,2560.92 0,1414.36 -1146.57,2560.93 -2560.93,2560.93 -1414.36,0 -2560.93,-1146.57 -2560.93,-2560.93 0,-1414.36 1146.57,-2560.92 2560.93,-2560.92z"/>
    <path class="fil16 str15" d="M10263.15 1737.84c1239.19,0 2243.76,1004.57 2243.76,2243.76 0,1239.19 -1004.57,2243.76 -2243.76,2243.76 -1239.19,0 -2243.76,-1004.57 -2243.76,-2243.76 0,-1239.19 1004.57,-2243.76 2243.76,-2243.76z"/>
    <path class="fil17 str16" d="M10379.69 1795.37c1064.03,0 1926.6,862.57 1926.6,1926.6 0,1064.03 -862.57,1926.59 -1926.6,1926.59 -1064.03,0 -1926.6,-862.56 -1926.6,-1926.59 0,-1064.03 862.57,-1926.6 1926.6,-1926.6z"/>
    <path class="fil18 str17" d="M10496.23 1852.9c888.86,0 1609.43,720.57 1609.43,1609.43 0,888.87 -720.57,1609.43 -1609.43,1609.43 -888.86,0 -1609.43,-720.56 -1609.43,-1609.43 0,-888.86 720.57,-1609.43 1609.43,-1609.43z"/>
    <path class="fil19 str18" d="M10612.77 1910.43c713.7,0 1292.27,578.57 1292.27,1292.27 0,713.7 -578.57,1292.27 -1292.27,1292.27 -713.7,0 -1292.27,-578.57 -1292.27,-1292.27 0,-713.7 578.57,-1292.27 1292.27,-1292.27z"/>
    <path class="fil20 str19" d="M10729.31 1967.97c538.53,0 975.1,436.57 975.1,975.1 0,538.53 -436.57,975.1 -975.1,975.1 -538.53,0 -975.1,-436.57 -975.1,-975.1 0,-538.53 436.57,-975.1 975.1,-975.1z"/>
    <path class="fil21 str20" d="M10845.85 2025.5c363.37,0 657.94,294.57 657.94,657.93 0,363.37 -294.57,657.94 -657.94,657.94 -363.37,0 -657.94,-294.57 -657.94,-657.94 0,-363.36 294.57,-657.93 657.94,-657.93z"/>
   </g>
   <circle class="fil22 str21" cx="10962.39" cy="2423.8" r="340.77"/>
  </g>
  <g id="_925019456">
   <path class="fil23" d="M8167.16 7110.77l-167.57 986.02 -64.06 0 -47.3 22.05 -26.46 42.23 0 4076.16c0,55 -45,100 -100,100l-872.27 0c-55,0 -100,-45 -100,-100l0 -4140.44 0 -986.02 0 -3218.32c0,-55 45,-100 100,-100l972.27 0 0 2.21 3089.05 0c55,0 100,45 100,100l0 786.02c0,54.99 -42.81,100.79 -97.8,100.79l-2948.02 0 -114.57 26.46 -26.57 91.03 -2.03 2148.67 21.99 38.88 35.2 24.26 248.14 0z"/>
   <path class="fil24 str22" d="M7999.59 8096.79l-64.06 0 -47.3 22.05 -26.46 42.23 0 4076.16c0,55 -45,100 -100,100l-872.27 0c-55,0 -100,-45 -100,-100l0 -4140.44 0 -986.02 0 -3218.32c0,-55 45,-100 100,-100l972.27 0 0 2.21 3089.05 0c55,0 100,45 100,100l0 786.02c0,54.99 -42.81,100.79 -97.8,100.79l-2948.02 0 -114.57 26.46 -26.57 91.03 -2.03 2148.67 21.99 38.88 35.2 24.26 248.14 0"/>
   <g>
    <path class="fil23" d="M8616.53 7115.64l-180.8 986.02 2006.55 0c55,0 100,-45 100,-100l0 -786.02c0,-55 -45,-100 -100,-100l-1825.75 0z"/>
    <path class="fil13 str22" d="M8435.73 8101.66l2006.55 0c55,0 100,-45 100,-100l0 -786.02c0,-55 -45,-100 -100,-100l-1825.75 0"/>
   </g>
  </g>
 </g>
</svg>
